<svg width="324" height="104" viewBox="0 0 324 104" fill="none" xmlns="http://www.w3.org/2000/svg">
<path d="M15.9341 22.3438L15.4653 19.1562C15.3091 18.125 15.231 17.5469 15.231 17.4219C15.231 17.1094 15.4653 16.8438 15.9341 16.625L23.856 12.9219C23.981 12.8594 24.1216 12.8281 24.2778 12.8281C24.7153 12.8281 24.9966 13.1094 25.1216 13.6719L37.8716 77.2344C38.0903 78.3906 38.356 79.2188 38.6685 79.7188C39.0122 80.2188 39.6528 80.75 40.5903 81.3125C41.3091 81.75 41.6685 82.25 41.6685 82.8125V84.875C41.6685 85.625 41.3716 86 40.7778 86H25.1216C24.2778 86 23.856 85.625 23.856 84.875V82.8125C23.856 82.0938 24.356 81.4844 25.356 80.9844C26.5747 80.3281 27.1841 79.4375 27.1841 78.3125C27.1841 78 27.1528 77.6406 27.0903 77.2344L25.1216 67.4375H12.8872L10.9185 76.8594C10.8247 77.2656 10.7778 77.5625 10.7778 77.75C10.7778 78.6875 11.481 79.7188 12.8872 80.8438C13.7935 81.5938 14.2466 82.25 14.2466 82.8125V84.875C14.2466 85.625 13.7935 86 12.8872 86H3.09033C1.99658 86 1.44971 85.625 1.44971 84.875V82.4375C1.44971 81.7812 1.79346 81.25 2.48096 80.8438C3.76221 80.0625 4.60596 78.7344 5.01221 76.8594L15.9341 22.3438ZM19.1216 37.3906L14.2466 61.4375H23.856L19.1216 37.3906ZM57.8872 51.875V77.2812C57.8872 78.9062 58.481 80.125 59.6685 80.9375C60.481 81.4688 60.8872 82.0938 60.8872 82.8125V84.9219C60.8872 85.6406 60.481 86 59.6685 86H45.0435C44.356 86 44.0122 85.6719 44.0122 85.0156V82.8125C44.0122 82.125 44.4185 81.5 45.231 80.9375C46.4185 80.0938 47.0122 78.875 47.0122 77.2812V21.7812C47.0122 20.1875 46.4185 18.9844 45.231 18.1719C44.4185 17.6406 44.0122 17 44.0122 16.25V14.1875C44.0122 13.4688 44.4185 13.1094 45.231 13.1094H57.5122C64.4497 13.1094 69.731 14.6719 73.356 17.7969C76.981 20.9219 78.7935 25.4375 78.7935 31.3438C78.7935 40.75 74.4341 46.8281 65.7153 49.5781C68.2778 50.8281 70.2153 52.25 71.5278 53.8438C72.8716 55.4062 73.9028 57.7188 74.6216 60.7812L78.0435 75.6406C78.481 77.5469 78.9028 78.8438 79.3091 79.5312C79.7466 80.1875 80.4497 80.8125 81.4185 81.4062C81.6997 81.5938 81.8403 81.8906 81.8403 82.2969V84.9688C81.8403 85.6562 81.4966 86 80.8091 86H71.4341C70.5278 86 69.9497 85.5 69.6997 84.5L63.3247 58.7188C62.6372 55.875 61.8716 54.0312 61.0278 53.1875C60.2153 52.3438 59.1685 51.9062 57.8872 51.875ZM57.8872 18.7812V46.2969C61.2622 46.2969 63.7466 45.2344 65.3403 43.1094C66.9341 40.9844 67.731 37.2031 67.731 31.7656C67.731 26.4531 66.9185 22.9687 65.2935 21.3125C63.6997 19.625 61.231 18.7812 57.8872 18.7812ZM97.7778 22.3438L97.3091 19.1562C97.1528 18.125 97.0747 17.5469 97.0747 17.4219C97.0747 17.1094 97.3091 16.8438 97.7778 16.625L105.7 12.9219C105.825 12.8594 105.965 12.8281 106.122 12.8281C106.559 12.8281 106.84 13.1094 106.965 13.6719L119.715 77.2344C119.934 78.3906 120.2 79.2188 120.512 79.7188C120.856 80.2188 121.497 80.75 122.434 81.3125C123.153 81.75 123.512 82.25 123.512 82.8125V84.875C123.512 85.625 123.215 86 122.622 86H106.965C106.122 86 105.7 85.625 105.7 84.875V82.8125C105.7 82.0938 106.2 81.4844 107.2 80.9844C108.418 80.3281 109.028 79.4375 109.028 78.3125C109.028 78 108.997 77.6406 108.934 77.2344L106.965 67.4375H94.731L92.7622 76.8594C92.6685 77.2656 92.6216 77.5625 92.6216 77.75C92.6216 78.6875 93.3247 79.7188 94.731 80.8438C95.6372 81.5938 96.0903 82.25 96.0903 82.8125V84.875C96.0903 85.625 95.6372 86 94.731 86H84.9341C83.8403 86 83.2935 85.625 83.2935 84.875V82.4375C83.2935 81.7812 83.6372 81.25 84.3247 80.8438C85.606 80.0625 86.4497 78.7344 86.856 76.8594L97.7778 22.3438ZM100.965 37.3906L96.0903 61.4375H105.7L100.965 37.3906ZM128.856 77.2812V21.7812C128.856 20.1875 128.262 18.9844 127.075 18.1719C126.262 17.6406 125.856 17 125.856 16.25V14.1875C125.856 13.4688 126.262 13.1094 127.075 13.1094H141.7C142.387 13.1094 142.731 13.4375 142.731 14.0938V16.25C142.731 16.9687 142.325 17.6094 141.512 18.1719C140.325 19.0156 139.731 20.2188 139.731 21.7812V80.4219H143.715C146.059 80.4219 147.872 79.7031 149.153 78.2656C150.465 76.7969 151.434 74.3125 152.059 70.8125C152.309 69.4688 152.481 68.7031 152.575 68.5156C152.7 68.2969 152.981 68.1875 153.418 68.1875H155.622C156.465 68.1875 156.887 68.5312 156.887 69.2188V86H127.028C125.997 86 125.481 85.5312 125.481 84.5938V82.8125C125.481 82.0938 125.934 81.4688 126.84 80.9375C128.184 80.125 128.856 78.9062 128.856 77.2812ZM173.2 77.2812C173.2 78.9062 173.793 80.125 174.981 80.9375C175.793 81.4688 176.2 82.0938 176.2 82.8125V84.9219C176.2 85.6406 175.793 86 174.981 86H160.356C159.668 86 159.325 85.6719 159.325 85.0156V82.8125C159.325 82.125 159.731 81.5 160.543 80.9375C161.731 80.0938 162.325 78.875 162.325 77.2812V21.7812C162.325 20.1875 161.731 18.9844 160.543 18.1719C159.731 17.6406 159.325 17 159.325 16.25V14.1875C159.325 13.4688 159.731 13.1094 160.543 13.1094H175.168C175.856 13.1094 176.2 13.4375 176.2 14.0938V16.25C176.2 16.9687 175.793 17.6094 174.981 18.1719C173.793 19.0156 173.2 20.2188 173.2 21.7812V77.2812ZM182.293 77.2812V21.7812C182.293 20.1875 181.7 18.9844 180.512 18.1719C179.7 17.6406 179.293 17 179.293 16.25V14.1875C179.293 13.4688 179.7 13.1094 180.512 13.1094H195.137C195.825 13.1094 196.168 13.4375 196.168 14.0938V16.25C196.168 16.9687 195.762 17.6094 194.95 18.1719C193.762 19.0156 193.168 20.2188 193.168 21.7812V80.4219H197.153C199.497 80.4219 201.309 79.7031 202.59 78.2656C203.903 76.7969 204.872 74.3125 205.497 70.8125C205.747 69.4688 205.918 68.7031 206.012 68.5156C206.137 68.2969 206.418 68.1875 206.856 68.1875H209.059C209.903 68.1875 210.325 68.5312 210.325 69.2188V86H180.465C179.434 86 178.918 85.5312 178.918 84.5938V82.8125C178.918 82.0938 179.372 81.4688 180.278 80.9375C181.622 80.125 182.293 78.9062 182.293 77.2812ZM226.59 22.3438L226.122 19.1562C225.965 18.125 225.887 17.5469 225.887 17.4219C225.887 17.1094 226.122 16.8438 226.59 16.625L234.512 12.9219C234.637 12.8594 234.778 12.8281 234.934 12.8281C235.372 12.8281 235.653 13.1094 235.778 13.6719L248.528 77.2344C248.747 78.3906 249.012 79.2188 249.325 79.7188C249.668 80.2188 250.309 80.75 251.247 81.3125C251.965 81.75 252.325 82.25 252.325 82.8125V84.875C252.325 85.625 252.028 86 251.434 86H235.778C234.934 86 234.512 85.625 234.512 84.875V82.8125C234.512 82.0938 235.012 81.4844 236.012 80.9844C237.231 80.3281 237.84 79.4375 237.84 78.3125C237.84 78 237.809 77.6406 237.747 77.2344L235.778 67.4375H223.543L221.575 76.8594C221.481 77.2656 221.434 77.5625 221.434 77.75C221.434 78.6875 222.137 79.7188 223.543 80.8438C224.45 81.5938 224.903 82.25 224.903 82.8125V84.875C224.903 85.625 224.45 86 223.543 86H213.747C212.653 86 212.106 85.625 212.106 84.875V82.4375C212.106 81.7812 212.45 81.25 213.137 80.8438C214.418 80.0625 215.262 78.7344 215.668 76.8594L226.59 22.3438ZM229.778 37.3906L224.903 61.4375H234.512L229.778 37.3906Z" fill="white"/>
<mask id="mask0_2703_91" style="mask-type:luminance" maskUnits="userSpaceOnUse" x="245" y="14" width="65" height="61">
<path d="M255.917 14.2554L309.6 25.3049L299.382 74.9482L245.699 63.8987L255.917 14.2554Z" fill="white"/>
</mask>
<g mask="url(#mask0_2703_91)">
<path d="M251.378 60.8918C252.932 62.8411 255.104 64.7394 258.088 65.9209C259.992 66.8374 262.127 67.28 264.492 67.2193C267.104 67.1533 268.895 66.0822 269.816 64.0355C271.188 60.9914 270.196 56.6363 268.857 55.1865C268.592 54.8976 268.499 54.524 268.6 54.1374C268.727 53.6376 269.17 53.1794 269.698 52.9979L273.888 51.5615C274.05 51.5041 274.234 51.5386 274.366 51.6516C274.497 51.7626 274.554 51.9326 274.511 52.0903L273.958 54.1765C273.672 55.2556 274.332 56.3661 275.428 56.6544L281.355 58.6758L280.92 59.4504L277.654 65.2859C277.05 66.3671 277.507 67.7311 278.674 68.3291C278.882 68.4345 279.101 68.511 279.324 68.557C279.709 68.6362 280.109 68.6261 280.492 68.5204C281.099 68.3549 281.595 67.9756 281.887 67.4518L293.303 47.0625C293.384 48.204 293.69 49.4363 294.834 50.3067C295.698 50.9676 296.707 51.3419 297.692 51.5446C299.874 51.9938 301.942 51.5948 302.065 51.5691C302.485 51.4857 302.782 51.1395 302.781 50.7336C302.78 50.6262 302.761 49.0307 302.102 47.325C303.835 46.7616 305.105 45.7794 305.187 45.7139C305.351 45.586 305.396 45.3677 305.296 45.1838C305.215 45.0353 303.27 41.5294 300.014 40.8594C298.827 40.6149 297.605 40.8599 296.499 41.3512L298.128 38.4409C298.733 37.3616 298.274 35.9956 297.108 35.3993C296.542 35.1097 295.897 35.0413 295.289 35.2064C294.683 35.3718 294.188 35.7515 293.894 36.275L291.288 40.9302L290.686 42.0051C290.671 41.8686 290.635 41.7291 290.568 41.59L290.195 40.6804C289.891 39.917 288.583 39.6379 287.796 39.6885L287.379 39.7133C287.736 39.4403 288.068 39.1475 288.375 38.833C289.466 37.7185 290.238 36.3602 290.556 34.8145C290.573 34.7353 290.587 34.6559 290.602 34.578C290.622 34.5708 290.641 34.5597 290.662 34.5524C290.965 34.4532 291.251 34.3339 291.512 34.1882C291.532 34.1774 291.549 34.1644 291.569 34.1537C291.837 33.9995 292.085 33.8261 292.312 33.6321C292.564 33.4119 292.776 33.1883 292.97 32.9496C293.165 32.706 293.336 32.4494 293.491 32.1829C293.664 31.8853 293.796 31.6107 293.915 31.3283C293.924 31.3072 293.934 31.2861 293.944 31.265C294.057 30.9866 294.158 30.7023 294.246 30.412C294.256 30.3826 294.265 30.3549 294.273 30.3267C294.358 30.0393 294.431 29.7474 294.494 29.4554C294.501 29.4222 294.508 29.389 294.517 29.3561C294.577 29.065 294.626 28.7733 294.668 28.4851C294.673 28.4499 294.677 28.4144 294.682 28.3793C294.722 28.0906 294.753 27.805 294.777 27.5247C294.781 27.4892 294.783 27.4549 294.786 27.4194C294.808 27.1403 294.824 26.868 294.833 26.6027C294.834 26.5684 294.836 26.5341 294.836 26.5011C294.844 26.2373 294.849 25.9826 294.848 25.7399C294.847 25.7101 294.848 25.6805 294.847 25.6507C294.845 25.4096 294.84 25.1776 294.831 24.963C294.831 24.9383 294.83 24.9166 294.829 24.8934C294.821 24.6789 294.809 24.4786 294.796 24.2979C294.795 24.281 294.794 24.2661 294.792 24.2492C294.78 24.0702 294.767 23.9092 294.755 23.7715C294.738 23.6047 294.726 23.4902 294.715 23.4055C294.705 23.3094 294.698 23.2502 294.694 23.2263C294.683 23.1432 294.658 23.0655 294.624 22.9909C294.615 22.9675 294.597 22.9491 294.586 22.927C294.557 22.8766 294.53 22.8281 294.493 22.7842C294.474 22.7604 294.449 22.7437 294.427 22.7211C294.39 22.6855 294.352 22.6479 294.309 22.6176C294.281 22.5971 294.248 22.5838 294.218 22.5676C294.18 22.5466 294.146 22.5215 294.105 22.5065C289.849 21.0878 286.577 23.1933 284.97 24.6089C282.31 23.1313 279.013 22.545 276.013 23.0095C275.1 20.9612 272.918 17.5717 268.368 17.2025C268.297 17.1977 268.245 17.2069 268.195 17.2113C268.163 17.2146 268.13 17.2111 268.098 17.2178C268.052 17.2265 268.01 17.2457 267.966 17.2614C267.93 17.2738 267.893 17.2811 267.859 17.2989C267.818 17.3184 267.783 17.3493 267.745 17.3743C267.715 17.3963 267.682 17.4125 267.654 17.4364C267.593 17.4931 267.539 17.5563 267.496 17.6283C267.352 17.8673 263.979 23.5258 265.317 27.502C265.424 27.8175 265.559 28.1125 265.717 28.3908C265.771 28.4842 265.838 28.5674 265.897 28.6571C266.013 28.8326 266.131 29.0054 266.268 29.1639C266.354 29.2623 266.449 29.3495 266.543 29.4414C266.679 29.5732 266.818 29.7041 266.972 29.8232C267.083 29.9087 267.201 29.989 267.32 30.0681C267.404 30.1233 267.477 30.1895 267.567 30.241C267.528 30.4505 267.512 30.6583 267.492 30.8669C267.48 30.9734 267.458 31.081 267.452 31.187C267.439 31.3954 267.448 31.6033 267.452 31.8121C267.453 31.9195 267.445 32.0283 267.453 32.137C267.465 32.3425 267.497 32.547 267.526 32.7524C267.541 32.8594 267.547 32.9678 267.565 33.0755C267.597 33.2536 267.648 33.4273 267.691 33.6044C267.695 33.6201 267.699 33.6357 267.703 33.6513C267.732 33.7662 267.752 33.8841 267.787 33.9984C267.835 34.1585 267.899 34.3118 267.957 34.4688C265.125 35.55 261.058 37.6139 259.559 40.922C258.161 44.01 258.437 47.3273 258.657 49.9931L258.721 50.7715C258.82 52.0848 259.78 53.1929 261.111 53.5344C261.611 53.662 262.109 53.8075 262.599 53.9759C264.12 54.7837 265.031 55.8124 265.578 56.8204C266.605 58.7139 266.335 60.5319 266.314 60.6595C266.307 60.7025 266.302 60.7444 266.302 60.7888C266.271 62.5918 265.408 63.5354 263.732 63.5914C260.191 63.7086 254.32 59.6998 253.455 53.9228C253.294 52.8523 252.571 51.9861 251.571 51.6631C250.572 51.3338 249.498 51.5548 248.764 52.2201C248.034 52.8829 247.771 53.871 248.077 54.798C248.491 56.0527 249.476 58.5032 251.378 60.8918ZM298.798 45.672C300.274 46.7972 300.721 48.8566 300.855 49.9562C299.689 50.0624 297.464 50.086 295.987 48.9592C295.125 48.3017 295.133 47.0104 295.139 45.8721C295.141 45.5047 295.144 45.1442 295.113 44.8079C296.84 44.8321 298.077 45.1229 298.798 45.672ZM290.683 28.0805C290.955 27.2327 292.002 26.0993 292.959 25.2078C293.012 27.5208 292.748 31.3834 290.551 32.6513C290.428 31.2159 290.347 29.1378 290.683 28.0805ZM268.164 28.5199C267.658 28.1355 267.306 27.6393 267.097 27.0173C266.408 24.9741 267.378 22.1574 268.2 20.3375C268.909 22.5152 269.669 26.079 268.164 28.5199ZM269.43 30.4661C269.449 30.3744 269.453 30.2811 269.44 30.1893C272.05 28.7559 273.794 28.3265 275.041 28.7992C276.216 29.2407 277.159 30.5825 277.922 32.8803L277.588 34.5052C277.491 34.9782 277.822 35.4455 278.329 35.5498C278.835 35.6541 279.324 35.3556 279.422 34.8826L279.775 33.1659C280.055 32.6959 281.476 30.4882 283.553 30.4095C285.155 30.3449 286.953 31.6138 288.773 34.0746L288.718 34.4624C287.841 38.6358 282.823 41.1389 277.514 40.0461C272.195 38.9513 268.568 34.6541 269.43 30.4661ZM267.7 48.0449C267.581 48.2562 267.299 48.3317 267.071 48.2122C266.843 48.0927 266.755 47.8255 266.876 47.6162C269.414 43.163 272.638 43.5349 274.798 43.8144L275.662 43.9148C276.18 43.9554 276.669 44.0181 277.125 44.0989L277.451 44.1411C278.635 44.2925 279.769 44.7897 280.657 45.5531C280.672 45.5661 280.686 45.5772 280.701 45.5902C282.485 46.5428 283.071 46.0533 284.033 45.2436C284.776 44.6182 285.699 43.8417 287.362 43.7338L289.468 43.9199C289.527 43.9204 289.575 43.9057 289.627 43.8965L289.14 44.7661L283.768 54.3636L283.188 55.4001C283.175 55.0562 283.004 54.7373 282.713 54.5223C282.414 54.3009 282.037 54.2215 281.676 54.3006L279.959 54.6778C279.771 54.7182 279.575 54.6467 279.464 54.4985C279.35 54.3481 279.345 54.1523 279.45 54.0024C279.478 53.962 282.301 49.8809 280.869 47.1947C280.684 46.8483 280.433 46.5378 280.119 46.2636C279.396 45.6414 278.366 45.2217 277.011 44.9658L275.588 44.7869C275.331 44.7653 275.053 44.7294 274.757 44.6916C274.738 44.6893 274.719 44.6871 274.7 44.6832L273.854 44.5867C271.961 44.4146 269.646 44.6341 267.7 48.0449Z" fill="white"/>
</g>
<path d="M273.209 35.0849C274.436 35.3374 275.642 34.5319 275.898 33.2883C276.154 32.0447 275.363 30.8299 274.137 30.5773C272.91 30.3248 271.704 31.1288 271.448 32.3724C271.192 33.6159 271.982 34.8324 273.209 35.0849Z" fill="white"/>
<path d="M283.494 37.2021C284.721 37.4546 285.927 36.649 286.183 35.4055C286.439 34.1619 285.649 32.947 284.422 32.6945C283.195 32.442 281.99 33.246 281.734 34.4896C281.478 35.7331 282.268 36.9496 283.494 37.2021Z" fill="white"/>
<path d="M277.602 39.0634C278.109 39.1677 278.598 38.8692 278.696 38.3946L278.821 37.7839C278.919 37.3108 278.587 36.8435 278.081 36.7392C277.574 36.6349 277.085 36.9334 276.988 37.4065L276.862 38.0172C276.764 38.4918 277.096 38.9591 277.602 39.0634Z" fill="white"/>
<mask id="mask1_2703_91" style="mask-type:luminance" maskUnits="userSpaceOnUse" x="229" y="40" width="95" height="64">
<path d="M238.705 40.6885L323.731 58.1891L314.493 103.07L229.467 85.5689L238.705 40.6885Z" fill="white"/>
</mask>
<g mask="url(#mask1_2703_91)">
<mask id="mask2_2703_91" style="mask-type:luminance" maskUnits="userSpaceOnUse" x="235" y="53" width="86" height="58">
<path d="M235.826 53.5104L319.294 53.854L320.665 110.469L237.198 110.126L235.826 53.5104Z" fill="white"/>
</mask>
<g mask="url(#mask2_2703_91)">
<mask id="mask3_2703_91" style="mask-type:luminance" maskUnits="userSpaceOnUse" x="235" y="53" width="86" height="58">
<path d="M235.826 53.5104L319.294 53.854L320.665 110.469L237.198 110.126L235.826 53.5104Z" fill="white"/>
</mask>
<g mask="url(#mask3_2703_91)">
<path d="M294.896 54.3948C296.409 54.0186 297.997 53.8722 299.656 53.8788C302.406 53.8906 304.852 54.32 306.996 55.2478C309.478 56.3292 311.893 58.2133 314.243 60.8623C316.526 63.5108 318.169 66.2716 319.169 69.182C319.593 70.4073 319.832 72.0151 319.879 73.9277C319.927 75.9167 319.762 77.3703 319.39 78.3246C318.552 80.7314 316.97 82.5217 314.645 83.6608C313.432 84.2293 312.477 84.4929 311.78 84.4896C311.251 84.4878 310.982 84.3336 310.975 84.0269C310.964 83.6059 311.248 83.0343 311.832 82.3859C313.215 80.6701 313.889 79.0674 313.852 77.5376C313.819 76.1982 313.419 74.8197 312.658 73.4392C311.857 71.8297 310.54 70.1024 308.706 68.3363C306.841 66.5309 305.135 65.2233 303.591 64.4898C302.923 64.1808 302.055 63.9857 300.993 63.9815C297.281 63.9663 293.48 65.0986 289.591 67.3013L287.484 68.5547L288.399 69.5149C289.284 70.4357 290.348 72.0088 291.597 74.2333C292.877 76.532 293.531 78.1029 293.551 78.9069C293.571 79.7868 293.294 80.6269 292.717 81.4662C292.11 82.3441 291.459 82.8762 290.767 83.1033C290.11 83.3292 289.714 83.327 289.575 83.1351C289.435 82.9067 289.559 82.4093 289.938 81.6464C290.253 81.035 290.41 80.6155 290.406 80.4232C290.403 80.3088 290.195 80.0023 289.783 79.4656C289.544 79.1591 288.379 78.1591 286.281 76.3913C284.147 74.6229 282.96 73.5078 282.717 73.0488L282.047 71.9362L280.678 72.9259C277.019 75.0903 270.339 78.5821 260.649 83.4383C258.523 84.5773 256.8 85.3721 255.484 85.7494C254.396 86.0896 252.878 86.2751 250.923 86.2668C245.551 86.2445 241.6 83.8564 239.066 79.1426C238.408 77.9156 238.005 77.0343 237.859 76.5358C237.715 75.9999 237.623 74.8512 237.581 73.1308C237.53 71.0259 237.753 69.3434 238.251 68.0459C238.75 66.7483 239.774 65.3362 241.329 63.7366L243.416 61.6793L239.682 59.3688C237.156 57.7901 235.889 56.7904 235.881 56.4079C235.87 55.9884 236.233 55.7991 236.962 55.8008C237.523 55.8041 238.302 55.8441 239.297 55.8872C243.185 56.1334 247.355 57.3348 251.814 59.496C254.734 60.9612 256.28 61.8863 256.456 62.2688C256.463 62.5357 255.668 63.2215 254.071 64.3622C251.266 66.3016 249.287 67.9391 248.127 69.3496C246.967 70.7205 246.403 72.1728 246.438 73.6262C246.457 74.3905 246.662 75.3084 247.057 76.4204C248.372 80.0982 250.587 81.9428 253.702 81.9556C254.496 81.959 255.438 81.8099 256.526 81.5095C258.664 80.8281 260.986 79.6155 263.494 77.7882C266.165 75.8874 269.755 72.8035 274.258 68.5008C279.865 63.2446 283.822 59.8189 286.139 58.2591C288.619 56.5876 291.537 55.2983 294.896 54.3948ZM268.379 94.6771C268.8 94.4107 269.163 94.2595 269.461 94.2599C270.621 94.2644 271.36 95.3005 271.674 97.3673C271.833 98.3632 272.163 99.0528 272.668 99.399C273.14 99.7454 274.028 100.017 275.323 100.213C277.579 100.413 278.822 101.068 279.047 102.14C279.12 102.332 279.159 102.524 279.164 102.753C279.175 103.174 278.916 103.479 278.387 103.631C277.828 103.781 276.935 103.853 275.709 103.848C274.051 103.841 273.029 104.028 272.639 104.41C272.253 104.753 272.009 105.669 271.91 107.123C271.761 109.187 271.175 110.255 270.146 110.251C269.717 110.25 269.311 109.942 268.932 109.404C268.587 108.83 268.319 107.987 268.127 106.915C267.961 105.499 267.677 104.657 267.27 104.349C266.829 104.002 265.815 103.808 264.223 103.801C262.963 103.795 262.048 103.716 261.483 103.56C260.983 103.444 260.728 103.137 260.717 102.677C260.711 102.448 260.739 102.258 260.8 102.066C260.973 100.995 262.217 100.35 264.532 100.169C265.922 99.983 266.795 99.757 267.151 99.4526C267.541 99.1091 267.722 98.4982 267.701 97.6199C267.666 96.1267 267.89 95.1337 268.379 94.6771Z" fill="white"/>
</g>
</g>
</g>
</svg>
