<svg width="154" height="144" viewBox="0 0 154 144" fill="none" xmlns="http://www.w3.org/2000/svg">
<mask id="mask0_2698_108" style="mask-type:luminance" maskUnits="userSpaceOnUse" x="28" y="0" width="97" height="97">
<path d="M28 0.287964H124.69V96.0532H28V0.287964Z" fill="white"/>
</mask>
<g mask="url(#mask0_2698_108)">
<path d="M36.7441 88.3253C40.1228 91.3407 44.5513 94.0266 50.1275 95.0765C53.7442 96.047 57.5898 96.0531 61.6552 95.0399C66.1448 93.9228 68.8581 91.2583 69.7219 87.1197C71.0098 80.9636 67.7472 73.2816 64.9179 71.1085C64.3563 70.6751 64.0633 70.0189 64.0999 69.265C64.1427 68.2914 64.7439 67.2751 65.5924 66.7379L72.3222 62.4833C72.5817 62.3154 72.9113 62.3093 73.1799 62.468C73.4454 62.6237 73.6041 62.9167 73.5858 63.2249L73.3722 67.2964C73.2623 69.4024 74.7975 71.2061 76.7935 71.3221L87.7536 72.8054L87.2774 74.4047L83.7096 86.4482C83.0503 88.6793 84.3261 91.0294 86.5541 91.6917C86.9509 91.8077 87.3568 91.8657 87.7597 91.8657C88.4525 91.8657 89.1392 91.6948 89.7649 91.3529C90.7538 90.8158 91.4771 89.9246 91.7945 88.8441L104.268 46.762C104.815 48.8435 105.782 51.0074 108.068 52.1825C109.796 53.0768 111.673 53.385 113.446 53.385C117.377 53.385 120.808 51.859 121.012 51.7644C121.708 51.45 122.099 50.6961 121.952 49.9453C121.912 49.7469 121.311 46.8017 119.565 43.8961C122.361 42.193 124.205 39.8918 124.324 39.7392C124.562 39.4401 124.562 39.0189 124.324 38.7167C124.131 38.4725 119.523 32.7255 113.66 32.7255C111.52 32.7255 109.497 33.6441 107.76 34.9749L109.539 28.9684C110.202 26.7403 108.923 24.3872 106.695 23.7279C105.614 23.4075 104.476 23.5265 103.484 24.0637C102.495 24.6008 101.775 25.492 101.454 26.5725L98.6068 36.1804L97.9475 38.3993C97.8743 38.1521 97.7614 37.9079 97.5965 37.6759L96.629 36.1346C95.8324 34.8375 93.4732 34.8192 92.1303 35.2129L91.4191 35.4174C91.938 34.7765 92.408 34.1081 92.8261 33.4091C94.3156 30.9308 95.1671 28.1229 95.1671 25.141C95.1671 24.9884 95.164 24.8358 95.161 24.6863C95.1946 24.6649 95.222 24.6374 95.2556 24.6161C95.7439 24.317 96.1956 23.9874 96.5955 23.6181C96.626 23.5906 96.6504 23.5601 96.6809 23.5326C97.0899 23.145 97.4561 22.7299 97.7797 22.2843C98.1368 21.7807 98.4237 21.2863 98.6739 20.7705C98.9242 20.2455 99.1287 19.7053 99.3027 19.1529C99.4949 18.5363 99.6262 17.9778 99.73 17.4101C99.7391 17.3674 99.7483 17.3247 99.7574 17.2819C99.8551 16.7234 99.9283 16.1588 99.9772 15.588C99.9833 15.53 99.9894 15.4751 99.9924 15.4202C100.038 14.8555 100.06 14.2878 100.066 13.7232C100.066 13.6591 100.066 13.595 100.069 13.5309C100.069 12.9693 100.05 12.4108 100.02 11.8614C100.017 11.7943 100.011 11.7271 100.008 11.66C99.9741 11.1106 99.9253 10.5704 99.8673 10.0424C99.8612 9.97524 99.852 9.91115 99.8459 9.844C99.7849 9.31904 99.7147 8.80934 99.6353 8.31491C99.6262 8.25081 99.617 8.18672 99.6048 8.12568C99.5255 7.63429 99.4431 7.16122 99.3545 6.71256C99.3423 6.65763 99.3332 6.60269 99.321 6.54775C99.2325 6.10215 99.1409 5.67485 99.0493 5.28114C99.0402 5.23535 99.031 5.19568 99.0219 5.15295C98.9303 4.75923 98.8387 4.39298 98.7533 4.06335C98.7441 4.03283 98.738 4.00536 98.7289 3.97484C98.6434 3.64827 98.5641 3.35527 98.4939 3.105C98.4053 2.80284 98.3443 2.5953 98.2955 2.4427C98.2436 2.26873 98.21 2.16191 98.1948 2.11918C98.1459 1.96963 98.0757 1.83533 97.9903 1.7102C97.9658 1.67052 97.9292 1.64305 97.9018 1.60643C97.8346 1.52402 97.7705 1.44467 97.6912 1.37752C97.6484 1.3409 97.5996 1.31953 97.5538 1.28596C97.4775 1.23407 97.3982 1.17914 97.3127 1.13946C97.2578 1.11199 97.1967 1.09978 97.1387 1.08147C97.0655 1.05705 96.9983 1.02348 96.922 1.01127C89.0629 0.00713589 84.1582 5.1499 81.8844 8.38205C76.763 6.66068 70.8572 6.83159 65.8396 8.83376C63.5322 5.39101 58.5573 -0.0508539 50.5639 0.999063C50.4388 1.01738 50.3533 1.054 50.2679 1.08147C50.2129 1.09978 50.155 1.10589 50.1031 1.1303C50.0268 1.16388 49.9596 1.21576 49.8894 1.26154C49.8314 1.29817 49.7704 1.32564 49.7185 1.37142C49.6544 1.4233 49.6056 1.4935 49.5476 1.55454C49.5049 1.60643 49.453 1.64916 49.4133 1.70409C49.3278 1.83228 49.2576 1.96963 49.2088 2.11918C49.044 2.61667 45.2289 14.3733 48.9555 21.2222C49.2515 21.7654 49.5903 22.2599 49.9627 22.7146C50.0878 22.8672 50.2343 22.9954 50.3686 23.1389C50.6311 23.4197 50.8966 23.6944 51.1896 23.9355C51.3727 24.085 51.5681 24.2102 51.7634 24.3444C52.0442 24.5367 52.3311 24.726 52.6394 24.8877C52.8622 25.0037 53.0941 25.1075 53.3291 25.2082C53.4939 25.2784 53.6435 25.373 53.8175 25.434C53.8236 25.8369 53.8693 26.2276 53.909 26.6213C53.9273 26.8227 53.9273 27.0303 53.9548 27.2287C54.0067 27.6193 54.0952 28.0008 54.1776 28.3854C54.2173 28.5838 54.2417 28.7883 54.2936 28.9867C54.3882 29.3621 54.5164 29.7283 54.6385 30.0976C54.7026 30.2899 54.7514 30.4883 54.8216 30.6806C54.9406 30.998 55.0902 31.3001 55.2275 31.6115C55.2397 31.6389 55.2519 31.6664 55.2641 31.6939C55.3557 31.8953 55.432 32.1059 55.5327 32.3043C55.6731 32.582 55.8379 32.8414 55.9936 33.11C51.4857 36.1896 45.1923 41.5582 43.7792 48.2514C42.4607 54.499 44.1179 60.533 45.4456 65.3828L45.8332 66.7989C46.4711 69.1918 48.5251 70.8765 50.9454 71.0016C51.855 71.0474 52.7675 71.1268 53.674 71.2519C56.5887 72.1675 58.5299 73.7241 59.8331 75.3814C62.2809 78.4945 62.461 81.9617 62.4701 82.2058C62.4732 82.2882 62.4793 82.3676 62.4945 82.45C63.0836 85.7981 61.9268 87.8736 59.0518 88.6152C52.9751 90.1809 41.4046 84.9985 37.8551 74.6367C37.1958 72.7169 35.6392 71.3893 33.7958 71.1726C31.9523 70.9437 30.176 71.7616 29.1444 73.2724C28.1189 74.7771 28.0151 76.706 28.8728 78.3053C30.0356 80.4692 32.6085 84.6292 36.7441 88.3253ZM113.269 42.0954C116.22 43.6153 117.725 47.2564 118.348 49.2403C116.37 49.8812 112.533 50.7724 109.582 49.2494C107.858 48.3613 107.412 45.9685 107.018 43.8595C106.89 43.1789 106.768 42.5104 106.594 41.9C109.588 41.2866 111.828 41.3537 113.269 42.0954ZM92.9909 12.6306C93.1588 10.958 94.5658 8.46141 95.9026 6.44703C96.8152 10.7077 97.7339 17.9564 94.3888 21.1398C93.6655 18.5302 92.7865 14.7151 92.9909 12.6306ZM54.2356 22.0218C53.2254 21.503 52.441 20.7186 51.858 19.6473C49.9413 16.1282 50.6158 10.546 51.388 6.86517C53.3871 10.6253 55.9692 16.9309 54.2356 22.0218ZM57.1168 25.141C57.1168 24.964 57.0893 24.7901 57.0344 24.6252C61.0356 20.978 63.8954 19.5191 66.2181 19.9189C68.4064 20.2882 70.5124 22.4125 72.6488 26.3741V29.5086C72.6488 30.4211 73.3874 31.1597 74.3 31.1597C75.2126 31.1597 75.9512 30.4211 75.9512 29.5086V26.1971C76.2686 25.2204 77.9381 20.5934 81.4999 19.6564C84.2437 18.927 87.8024 20.5904 91.822 24.4513L91.8647 25.1899C91.8342 33.2474 84.0544 39.791 74.4923 39.791C64.9118 39.791 57.1168 33.2199 57.1168 25.141ZM60.3794 58.3324C60.2482 58.7689 59.7873 59.0161 59.3509 58.8818C58.9144 58.7475 58.6672 58.2867 58.8015 57.8533C61.6033 48.6451 67.3077 48.1049 71.138 47.7997L72.6671 47.6563C73.5766 47.5342 74.4434 47.464 75.2614 47.4396L75.8382 47.3938C77.9381 47.2229 80.0745 47.7112 81.8814 48.7855C81.9119 48.8038 81.9394 48.8191 81.9699 48.8374C85.3913 49.9209 86.2306 48.7916 87.604 46.9268C88.6661 45.4862 89.9846 43.6977 92.82 42.8645L96.5253 42.4067C96.626 42.3853 96.7053 42.3395 96.7908 42.3029L96.2597 44.0975L90.3906 63.9056L89.7557 66.0451C89.6123 65.4133 89.2033 64.8883 88.6234 64.6014C88.0283 64.3054 87.3476 64.3023 86.7525 64.5862L83.9202 65.9382C83.6088 66.0847 83.2456 66.0267 83.0015 65.7948C82.7512 65.5598 82.6719 65.1996 82.8 64.8822C82.8336 64.7968 86.2611 56.1685 82.8306 51.743C82.388 51.1723 81.8447 50.6931 81.2038 50.3055C79.7327 49.4295 77.8038 49.045 75.3713 49.0877L72.8503 49.2983C72.3985 49.3563 71.9041 49.3959 71.3791 49.4387C71.3456 49.4417 71.312 49.4448 71.2784 49.4448L69.7829 49.5882C66.45 49.9911 62.5281 51.2791 60.3794 58.3324Z" fill="#AD46FF"/>
</g>
<path d="M67.0074 31.2495C69.2171 31.2495 71.0148 29.2992 71.0148 26.9002C71.0148 24.5013 69.2171 22.5541 67.0074 22.5541C64.7977 22.5541 63 24.5013 63 26.9002C63 29.2992 64.7977 31.2495 67.0074 31.2495Z" fill="#AD46FF"/>
<path d="M85.5333 31.2495C87.743 31.2495 89.5407 29.2992 89.5407 26.9002C89.5407 24.5013 87.743 22.5541 85.5333 22.5541C83.3236 22.5541 81.5259 24.5013 81.5259 26.9002C81.5259 29.2992 83.3236 31.2495 85.5333 31.2495Z" fill="#AD46FF"/>
<path d="M76.014 36.9386C76.9265 36.9386 77.6651 36.2 77.6651 35.2844V34.1063C77.6651 33.1937 76.9265 32.4551 76.014 32.4551C75.1014 32.4551 74.3628 33.1937 74.3628 34.1063V35.2844C74.3628 36.2 75.1014 36.9386 76.014 36.9386Z" fill="#AD46FF"/>
<mask id="mask1_2698_108" style="mask-type:luminance" maskUnits="userSpaceOnUse" x="0" y="42" width="154" height="102">
<path d="M0 42.7627H153.141V144H0V42.7627Z" fill="white"/>
</mask>
<g mask="url(#mask1_2698_108)">
<mask id="mask2_2698_108" style="mask-type:luminance" maskUnits="userSpaceOnUse" x="-1" y="49" width="168" height="118">
<path d="M-0.415039 76.2071L143.933 49.2922L166.436 139.346L22.091 166.261L-0.415039 76.2071Z" fill="white"/>
</mask>
<g mask="url(#mask2_2698_108)">
<mask id="mask3_2698_108" style="mask-type:luminance" maskUnits="userSpaceOnUse" x="-1" y="49" width="168" height="118">
<path d="M-0.415039 76.2071L143.933 49.2922L166.436 139.346L71.4292 129.255L22.091 166.261L-0.415039 76.2071Z" fill="white"/>
</mask>
<g mask="url(#mask3_2698_108)">
<path d="M101.967 58.6791C104.449 57.4064 107.14 56.5305 110.009 55.9109C114.765 54.8854 119.144 54.748 123.179 55.6484C127.852 56.7044 132.696 59.2712 137.698 63.2786C142.584 67.3104 146.406 71.7939 149.168 76.7993C150.337 78.9053 151.322 81.7895 152.082 85.3116C152.873 88.9741 153.105 91.7271 152.803 93.6346C152.211 98.4081 150.114 102.324 146.5 105.318C144.608 106.832 143.051 107.683 141.846 107.943C140.93 108.141 140.411 107.958 140.289 107.393C140.121 106.618 140.408 105.452 141.186 104.03C142.966 100.328 143.561 97.1049 142.954 94.2878C142.42 91.8217 141.238 89.4228 139.432 87.1581C137.475 84.4845 134.585 81.7895 130.788 79.2196C126.924 76.5887 123.512 74.8185 120.582 74.0494C119.318 73.732 117.75 73.7015 115.912 74.0982C109.494 75.4839 103.328 79.0274 97.3921 84.5852L94.1966 87.7075L96.1194 89.1359C97.9751 90.5032 100.374 93.009 103.322 96.6501C106.353 100.416 108.041 103.075 108.361 104.555C108.709 106.176 108.529 107.836 107.83 109.609C107.095 111.465 106.158 112.698 105.044 113.382C103.988 114.05 103.304 114.197 102.996 113.894C102.672 113.525 102.709 112.558 103.093 111.001C103.42 109.75 103.542 108.913 103.466 108.559C103.42 108.349 102.953 107.86 102.05 107.024C101.528 106.548 99.1593 105.141 94.9047 102.669C90.589 100.209 88.1412 98.5973 87.5583 97.8404L86.0048 96.0366L83.9904 98.3898C78.4387 103.789 68.1379 112.796 53.1216 125.474C49.8529 128.392 47.1579 130.519 45.0184 131.719C43.2604 132.762 40.7027 133.684 37.321 134.414C28.0305 136.419 20.3545 133.504 14.2991 125.746C12.7273 123.725 11.7171 122.248 11.2867 121.381C10.8472 120.444 10.2795 118.353 9.59588 115.185C8.75961 111.309 8.54596 108.111 8.94578 105.519C9.34561 102.928 10.6122 99.925 12.7304 96.3724L15.6054 91.7698L8.33231 88.9161C3.40625 86.9567 0.860813 85.5893 0.711261 84.8843C0.543396 84.1121 1.10193 83.6238 2.36244 83.3491C3.333 83.1416 4.69423 82.9188 6.42781 82.6197C13.234 81.5942 20.8672 82.229 29.3398 84.5303C34.9068 86.1296 37.907 87.2527 38.3465 87.8937C38.4533 88.3851 37.3241 89.9569 34.9709 92.6763C30.814 97.3338 27.9755 101.118 26.4739 104.17C24.957 107.149 24.4992 110.052 25.076 112.728C25.3813 114.135 26.0619 115.756 27.1393 117.664C30.7193 123.969 35.2029 126.539 40.5898 125.376C41.9632 125.08 43.5381 124.445 45.3114 123.475C48.7633 121.399 52.3434 118.271 56.0272 113.934C59.9675 109.399 65.0736 102.324 71.3243 92.6458C79.1437 80.7823 84.7626 72.9354 88.2114 69.1661C91.9014 65.1282 96.4856 61.6305 101.967 58.6791ZM70.4758 143.329C71.1076 142.676 71.6814 142.257 72.1972 142.144C74.2024 141.711 75.8475 143.347 77.1263 147.052C77.755 148.835 78.5699 149.985 79.5649 150.434C80.5049 150.895 82.1347 151.06 84.4421 150.928C88.4129 150.44 90.7935 151.179 91.5626 153.077C91.758 153.404 91.8923 153.745 91.9838 154.167C92.1517 154.942 91.8129 155.604 90.9522 156.086C90.0396 156.578 88.5228 157.051 86.4016 157.509C83.5357 158.128 81.8356 158.864 81.2985 159.718C80.7522 160.5 80.6575 162.288 81.0024 165.017C81.4785 168.893 80.8468 171.093 79.0674 171.478C78.3257 171.64 77.5139 171.225 76.6685 170.373C75.8688 169.442 75.1058 167.983 74.3916 166.073C73.6011 163.515 72.8106 162.065 71.9988 161.65C71.1137 161.177 69.2916 161.205 66.5386 161.797C64.3594 162.267 62.751 162.468 61.7194 162.395C60.8129 162.371 60.2635 161.901 60.0804 161.052C59.9888 160.631 59.9705 160.268 60.0071 159.889C59.9247 157.841 61.8445 156.175 65.7817 154.957C68.1165 154.084 69.5449 153.333 70.0515 152.634C70.604 151.85 70.6986 150.651 70.3507 149.033C69.7585 146.283 69.7921 144.36 70.4758 143.329Z" fill="#AD46FF"/>
</g>
</g>
</g>
</svg>
