<svg width="337" height="103" viewBox="0 0 337 103" fill="none" xmlns="http://www.w3.org/2000/svg">
<path d="M57.3498 22.3438L56.881 19.1562C56.7248 18.125 56.6467 17.5469 56.6467 17.4219C56.6467 17.1094 56.881 16.8438 57.3498 16.625L65.2717 12.9219C65.3967 12.8594 65.5373 12.8281 65.6935 12.8281C66.131 12.8281 66.4123 13.1094 66.5373 13.6719L79.2873 77.2344C79.506 78.3906 79.7717 79.2188 80.0842 79.7188C80.4279 80.2188 81.0685 80.75 82.006 81.3125C82.7248 81.75 83.0842 82.25 83.0842 82.8125V84.875C83.0842 85.625 82.7873 86 82.1935 86H66.5373C65.6935 86 65.2717 85.625 65.2717 84.875V82.8125C65.2717 82.0938 65.7717 81.4844 66.7717 80.9844C67.9904 80.3281 68.5998 79.4375 68.5998 78.3125C68.5998 78 68.5685 77.6406 68.506 77.2344L66.5373 67.4375H54.3029L52.3342 76.8594C52.2404 77.2656 52.1935 77.5625 52.1935 77.75C52.1935 78.6875 52.8967 79.7188 54.3029 80.8438C55.2092 81.5938 55.6623 82.25 55.6623 82.8125V84.875C55.6623 85.625 55.2092 86 54.3029 86H44.506C43.4123 86 42.8654 85.625 42.8654 84.875V82.4375C42.8654 81.7812 43.2092 81.25 43.8967 80.8438C45.1779 80.0625 46.0217 78.7344 46.4279 76.8594L57.3498 22.3438ZM60.5373 37.3906L55.6623 61.4375H65.2717L60.5373 37.3906ZM99.3029 51.875V77.2812C99.3029 78.9062 99.8967 80.125 101.084 80.9375C101.897 81.4688 102.303 82.0938 102.303 82.8125V84.9219C102.303 85.6406 101.897 86 101.084 86H86.4592C85.7717 86 85.4279 85.6719 85.4279 85.0156V82.8125C85.4279 82.125 85.8342 81.5 86.6467 80.9375C87.8342 80.0938 88.4279 78.875 88.4279 77.2812V21.7812C88.4279 20.1875 87.8342 18.9844 86.6467 18.1719C85.8342 17.6406 85.4279 17 85.4279 16.25V14.1875C85.4279 13.4688 85.8342 13.1094 86.6467 13.1094H98.9279C105.865 13.1094 111.147 14.6719 114.772 17.7969C118.397 20.9219 120.209 25.4375 120.209 31.3438C120.209 40.75 115.85 46.8281 107.131 49.5781C109.694 50.8281 111.631 52.25 112.944 53.8438C114.287 55.4062 115.319 57.7188 116.037 60.7812L119.459 75.6406C119.897 77.5469 120.319 78.8438 120.725 79.5312C121.162 80.1875 121.865 80.8125 122.834 81.4062C123.115 81.5938 123.256 81.8906 123.256 82.2969V84.9688C123.256 85.6562 122.912 86 122.225 86H112.85C111.944 86 111.365 85.5 111.115 84.5L104.74 58.7188C104.053 55.875 103.287 54.0312 102.444 53.1875C101.631 52.3438 100.584 51.9062 99.3029 51.875ZM99.3029 18.7812V46.2969C102.678 46.2969 105.162 45.2344 106.756 43.1094C108.35 40.9844 109.147 37.2031 109.147 31.7656C109.147 26.4531 108.334 22.9687 106.709 21.3125C105.115 19.625 102.647 18.7812 99.3029 18.7812ZM139.194 22.3438L138.725 19.1562C138.569 18.125 138.49 17.5469 138.49 17.4219C138.49 17.1094 138.725 16.8438 139.194 16.625L147.115 12.9219C147.24 12.8594 147.381 12.8281 147.537 12.8281C147.975 12.8281 148.256 13.1094 148.381 13.6719L161.131 77.2344C161.35 78.3906 161.615 79.2188 161.928 79.7188C162.272 80.2188 162.912 80.75 163.85 81.3125C164.569 81.75 164.928 82.25 164.928 82.8125V84.875C164.928 85.625 164.631 86 164.037 86H148.381C147.537 86 147.115 85.625 147.115 84.875V82.8125C147.115 82.0938 147.615 81.4844 148.615 80.9844C149.834 80.3281 150.444 79.4375 150.444 78.3125C150.444 78 150.412 77.6406 150.35 77.2344L148.381 67.4375H136.147L134.178 76.8594C134.084 77.2656 134.037 77.5625 134.037 77.75C134.037 78.6875 134.74 79.7188 136.147 80.8438C137.053 81.5938 137.506 82.25 137.506 82.8125V84.875C137.506 85.625 137.053 86 136.147 86H126.35C125.256 86 124.709 85.625 124.709 84.875V82.4375C124.709 81.7812 125.053 81.25 125.74 80.8438C127.022 80.0625 127.865 78.7344 128.272 76.8594L139.194 22.3438ZM142.381 37.3906L137.506 61.4375H147.115L142.381 37.3906ZM170.272 77.2812V21.7812C170.272 20.1875 169.678 18.9844 168.49 18.1719C167.678 17.6406 167.272 17 167.272 16.25V14.1875C167.272 13.4688 167.678 13.1094 168.49 13.1094H183.115C183.803 13.1094 184.147 13.4375 184.147 14.0938V16.25C184.147 16.9687 183.74 17.6094 182.928 18.1719C181.74 19.0156 181.147 20.2188 181.147 21.7812V80.4219H185.131C187.475 80.4219 189.287 79.7031 190.569 78.2656C191.881 76.7969 192.85 74.3125 193.475 70.8125C193.725 69.4688 193.897 68.7031 193.99 68.5156C194.115 68.2969 194.397 68.1875 194.834 68.1875H197.037C197.881 68.1875 198.303 68.5312 198.303 69.2188V86H168.444C167.412 86 166.897 85.5312 166.897 84.5938V82.8125C166.897 82.0938 167.35 81.4688 168.256 80.9375C169.6 80.125 170.272 78.9062 170.272 77.2812ZM214.615 77.2812C214.615 78.9062 215.209 80.125 216.397 80.9375C217.209 81.4688 217.615 82.0938 217.615 82.8125V84.9219C217.615 85.6406 217.209 86 216.397 86H201.772C201.084 86 200.74 85.6719 200.74 85.0156V82.8125C200.74 82.125 201.147 81.5 201.959 80.9375C203.147 80.0938 203.74 78.875 203.74 77.2812V21.7812C203.74 20.1875 203.147 18.9844 201.959 18.1719C201.147 17.6406 200.74 17 200.74 16.25V14.1875C200.74 13.4688 201.147 13.1094 201.959 13.1094H216.584C217.272 13.1094 217.615 13.4375 217.615 14.0938V16.25C217.615 16.9687 217.209 17.6094 216.397 18.1719C215.209 19.0156 214.615 20.2188 214.615 21.7812V77.2812ZM223.709 77.2812V21.7812C223.709 20.1875 223.115 18.9844 221.928 18.1719C221.115 17.6406 220.709 17 220.709 16.25V14.1875C220.709 13.4688 221.115 13.1094 221.928 13.1094H236.553C237.24 13.1094 237.584 13.4375 237.584 14.0938V16.25C237.584 16.9687 237.178 17.6094 236.365 18.1719C235.178 19.0156 234.584 20.2188 234.584 21.7812V80.4219H238.569C240.912 80.4219 242.725 79.7031 244.006 78.2656C245.319 76.7969 246.287 74.3125 246.912 70.8125C247.162 69.4688 247.334 68.7031 247.428 68.5156C247.553 68.2969 247.834 68.1875 248.272 68.1875H250.475C251.319 68.1875 251.74 68.5312 251.74 69.2188V86H221.881C220.85 86 220.334 85.5312 220.334 84.5938V82.8125C220.334 82.0938 220.787 81.4688 221.694 80.9375C223.037 80.125 223.709 78.9062 223.709 77.2812ZM268.006 22.3438L267.537 19.1562C267.381 18.125 267.303 17.5469 267.303 17.4219C267.303 17.1094 267.537 16.8438 268.006 16.625L275.928 12.9219C276.053 12.8594 276.194 12.8281 276.35 12.8281C276.787 12.8281 277.069 13.1094 277.194 13.6719L289.944 77.2344C290.162 78.3906 290.428 79.2188 290.74 79.7188C291.084 80.2188 291.725 80.75 292.662 81.3125C293.381 81.75 293.74 82.25 293.74 82.8125V84.875C293.74 85.625 293.444 86 292.85 86H277.194C276.35 86 275.928 85.625 275.928 84.875V82.8125C275.928 82.0938 276.428 81.4844 277.428 80.9844C278.647 80.3281 279.256 79.4375 279.256 78.3125C279.256 78 279.225 77.6406 279.162 77.2344L277.194 67.4375H264.959L262.99 76.8594C262.897 77.2656 262.85 77.5625 262.85 77.75C262.85 78.6875 263.553 79.7188 264.959 80.8438C265.865 81.5938 266.319 82.25 266.319 82.8125V84.875C266.319 85.625 265.865 86 264.959 86H255.162C254.069 86 253.522 85.625 253.522 84.875V82.4375C253.522 81.7812 253.865 81.25 254.553 80.8438C255.834 80.0625 256.678 78.7344 257.084 76.8594L268.006 22.3438ZM271.194 37.3906L266.319 61.4375H275.928L271.194 37.3906Z" fill="#A637F3"/>
</svg>
